# xmcd CD database file
#
# Track frame offsets:
#	150
#	35853
#	72940
#	108846
#	145809
#	172316
#	202420
#	210025
#	253602
#
# Disc length: 3951 seconds
#
# Revision: 0
# Processed by: cddbd v1.5.2PL0 Copyright (c) Steve Scherf et al.
# Submitted via: CDex 1.70beta2
#
DISCID=8a0f6d09
DTITLE=Miho Hazama - Journey to Journey
DYEAR=2012
DGENRE=Jazz
TTITLE0=1.Mr. O
TTITLE1=2.Tokyo Confidential (+ Stefon Harris) 
TTITLE2=3.Blue Forest
TTITLE3=4.Journey to Journey (+ Steve Wilson, pf: Miho)
TTITLE4=5.Lady Gaga: Paparazzi
TTITLE5=6.Believing in Myself (string quartet, pf and perc, pf: Miho)
TTITLE6=7.Ballad
TTITLE7=8.What will You See When You Turn the Next Corner?
TTITLE8=9.Hidamari（邦題：陽だまりに、一冊の本）
EXTD=YEAR: 2012
EXTT0=
EXTT1=
EXTT2=
EXTT3=
EXTT4=
EXTT5=
EXTT6=
EXTT7=
EXTT8=
PLAYORDER=
